<mxfile host="65bd71144e">
    <diagram id="bJFINlmFqsX5Lqic0628" name="Page-1">
        <mxGraphModel dx="1731" dy="959" grid="1" gridSize="10" guides="1" tooltips="1" connect="1" arrows="1" fold="1" page="1" pageScale="1" pageWidth="1169" pageHeight="827" math="0" shadow="0">
            <root>
                <mxCell id="0"/>
                <mxCell id="1" parent="0"/>
                <mxCell id="6" style="edgeStyle=none;html=1;exitX=0.5;exitY=0;exitDx=0;exitDy=0;exitPerimeter=0;entryX=1;entryY=0.5;entryDx=0;entryDy=0;entryPerimeter=0;fontColor=#E6E6E6;labelBorderColor=#1A1A1A;spacing=4;shadow=1;strokeWidth=2;" parent="1" source="2" target="5" edge="1">
                    <mxGeometry relative="1" as="geometry">
                        <Array as="points">
                            <mxPoint x="611" y="120"/>
                            <mxPoint x="570" y="80"/>
                        </Array>
                    </mxGeometry>
                </mxCell>
                <mxCell id="31" style="edgeStyle=none;html=1;entryX=0.5;entryY=0;entryDx=0;entryDy=0;entryPerimeter=0;labelBackgroundColor=#1A1A1A;fontSize=12;fontColor=#E6E6E6;exitX=0.75;exitY=0;exitDx=0;exitDy=0;exitPerimeter=0;labelBorderColor=#1A1A1A;spacing=4;shadow=1;strokeWidth=2;" edge="1" parent="1" source="2" target="17">
                    <mxGeometry relative="1" as="geometry">
                        <Array as="points">
                            <mxPoint x="690" y="120"/>
                            <mxPoint x="930" y="120"/>
                            <mxPoint x="970" y="160"/>
                        </Array>
                    </mxGeometry>
                </mxCell>
                <mxCell id="48" style="edgeStyle=none;html=1;exitX=1;exitY=0.75;exitDx=0;exitDy=0;exitPerimeter=0;entryX=0;entryY=0.5;entryDx=0;entryDy=0;entryPerimeter=0;labelBackgroundColor=#1A1A1A;fontSize=12;fontColor=#E6E6E6;labelBorderColor=#1A1A1A;spacing=4;shadow=1;strokeWidth=2;" edge="1" parent="1" source="2" target="45">
                    <mxGeometry relative="1" as="geometry">
                        <Array as="points">
                            <mxPoint x="730" y="279"/>
                            <mxPoint x="730" y="360"/>
                            <mxPoint x="730" y="400"/>
                            <mxPoint x="650" y="400"/>
                            <mxPoint x="611" y="440"/>
                            <mxPoint x="611" y="599"/>
                        </Array>
                    </mxGeometry>
                </mxCell>
                <mxCell id="2" value="&lt;div style=&quot;font-family: &amp;#34;droid sans mono&amp;#34; , &amp;#34;monospace&amp;#34; , monospace ; line-height: 19px&quot;&gt;&lt;span&gt;aws_lambda_function&lt;br&gt;&lt;i&gt;&amp;lt;prefix&amp;gt;&lt;/i&gt;_reply_to_mentions&lt;/span&gt;&lt;/div&gt;" style="sketch=0;points=[[0,0,0],[0.25,0,0],[0.5,0,0],[0.75,0,0],[1,0,0],[0,1,0],[0.25,1,0],[0.5,1,0],[0.75,1,0],[1,1,0],[0,0.25,0],[0,0.5,0],[0,0.75,0],[1,0.25,0],[1,0.5,0],[1,0.75,0]];outlineConnect=0;fontColor=#4FC1FF;gradientColor=#F78E04;gradientDirection=north;fillColor=#D05C17;strokeColor=#ffffff;dashed=0;verticalLabelPosition=bottom;verticalAlign=top;align=center;html=1;fontSize=12;fontStyle=0;aspect=fixed;shape=mxgraph.aws4.resourceIcon;resIcon=mxgraph.aws4.lambda;labelBackgroundColor=#1E1E1E;" parent="1" vertex="1">
                    <mxGeometry x="531" y="159.5" width="159" height="159" as="geometry"/>
                </mxCell>
                <mxCell id="3" value="&lt;div style=&quot;font-family: &amp;#34;droid sans mono&amp;#34; , &amp;#34;monospace&amp;#34; , monospace ; line-height: 19px&quot;&gt;&lt;span&gt;aws_cloudwatch_event_rule&lt;br&gt;&lt;/span&gt;&lt;i&gt;&amp;lt;prefix&amp;gt;&lt;/i&gt;&lt;span&gt;_reply_to_mentions_schedule&lt;br&gt;&lt;br&gt;schedule_expression:&amp;nbsp;&lt;/span&gt;&lt;span style=&quot;color: rgb(206 , 145 , 120) ; font-size: 13px&quot;&gt;rate(2 minutes)&lt;/span&gt;&lt;/div&gt;" style="sketch=0;points=[[0,0,0],[0.25,0,0],[0.5,0,0],[0.75,0,0],[1,0,0],[0,1,0],[0.25,1,0],[0.5,1,0],[0.75,1,0],[1,1,0],[0,0.25,0],[0,0.5,0],[0,0.75,0],[1,0.25,0],[1,0.5,0],[1,0.75,0]];points=[[0,0,0],[0.25,0,0],[0.5,0,0],[0.75,0,0],[1,0,0],[0,1,0],[0.25,1,0],[0.5,1,0],[0.75,1,0],[1,1,0],[0,0.25,0],[0,0.5,0],[0,0.75,0],[1,0.25,0],[1,0.5,0],[1,0.75,0]];outlineConnect=0;fontColor=#4FC1FF;gradientColor=#F34482;gradientDirection=north;fillColor=#BC1356;strokeColor=#ffffff;dashed=0;verticalLabelPosition=bottom;verticalAlign=top;align=center;html=1;fontSize=12;fontStyle=0;aspect=fixed;shape=mxgraph.aws4.resourceIcon;resIcon=mxgraph.aws4.cloudwatch_2;labelBackgroundColor=#1E1E1E;" parent="1" vertex="1">
                    <mxGeometry x="130" y="400" width="78" height="78" as="geometry"/>
                </mxCell>
                <mxCell id="5" value="&lt;div style=&quot;line-height: 19px ; font-family: &amp;#34;droid sans mono&amp;#34; , &amp;#34;monospace&amp;#34; , monospace&quot;&gt;&lt;span&gt;aws_ecr_repository&lt;br&gt;&lt;i&gt;&amp;lt;prefix&amp;gt;_&lt;/i&gt;core&lt;br&gt;&lt;br&gt;&lt;font color=&quot;#ce9178&quot;&gt;./functions/Dockerfile&lt;/font&gt;&lt;/span&gt;&lt;/div&gt;" style="sketch=0;points=[[0,0,0],[0.25,0,0],[0.5,0,0],[0.75,0,0],[1,0,0],[0,1,0],[0.25,1,0],[0.5,1,0],[0.75,1,0],[1,1,0],[0,0.25,0],[0,0.5,0],[0,0.75,0],[1,0.25,0],[1,0.5,0],[1,0.75,0]];outlineConnect=0;fontColor=#4FC1FF;gradientColor=#F78E04;gradientDirection=north;fillColor=#D05C17;strokeColor=#ffffff;dashed=0;verticalLabelPosition=bottom;verticalAlign=top;align=center;html=1;fontSize=12;fontStyle=0;aspect=fixed;shape=mxgraph.aws4.resourceIcon;resIcon=mxgraph.aws4.ecr;labelBackgroundColor=#1E1E1E;" parent="1" vertex="1">
                    <mxGeometry x="390" y="40" width="78" height="78" as="geometry"/>
                </mxCell>
                <mxCell id="13" style="edgeStyle=none;html=1;entryX=0;entryY=0.5;entryDx=0;entryDy=0;entryPerimeter=0;exitX=1;exitY=0.5;exitDx=0;exitDy=0;exitPerimeter=0;fontColor=#E6E6E6;labelBorderColor=#1A1A1A;spacing=4;shadow=1;strokeWidth=2;" parent="1" source="16" target="2" edge="1">
                    <mxGeometry relative="1" as="geometry">
                        <Array as="points">
                            <mxPoint x="460" y="239"/>
                        </Array>
                    </mxGeometry>
                </mxCell>
                <mxCell id="16" value="&lt;div style=&quot;color: rgb(212 , 212 , 212) ; font-family: &amp;#34;droid sans mono&amp;#34; , &amp;#34;monospace&amp;#34; , monospace ; line-height: 19px ; font-size: 13px&quot;&gt;&lt;span style=&quot;color: rgb(79 , 193 , 255) ; background-color: rgb(30 , 30 , 30)&quot;&gt;&lt;font style=&quot;font-size: 13px&quot;&gt;aws_lambda_permission&lt;br&gt;&lt;br&gt;&lt;/font&gt;&lt;/span&gt;&lt;/div&gt;&lt;font style=&quot;font-size: 13px&quot;&gt;&lt;span style=&quot;font-family: &amp;#34;droid sans mono&amp;#34; , &amp;#34;monospace&amp;#34; , monospace ; background-color: rgb(30 , 30 , 30)&quot;&gt;action&lt;i&gt;:&amp;nbsp;&lt;/i&gt;&lt;/span&gt;&lt;span style=&quot;color: rgb(206 , 145 , 120) ; font-family: &amp;#34;droid sans mono&amp;#34; , &amp;#34;monospace&amp;#34; , monospace&quot;&gt;lambda:InvokeFunction&lt;/span&gt;&lt;span style=&quot;font-family: &amp;#34;droid sans mono&amp;#34; , &amp;#34;monospace&amp;#34; , monospace ; background-color: rgb(30 , 30 , 30)&quot;&gt;&lt;br&gt;principal:&amp;nbsp;&lt;/span&gt;&lt;span style=&quot;color: rgb(206 , 145 , 120) ; font-family: &amp;#34;droid sans mono&amp;#34; , &amp;#34;monospace&amp;#34; , monospace&quot;&gt;events.amazonaws.com&lt;/span&gt;&lt;/font&gt;" style="sketch=0;points=[[0,0,0],[0.25,0,0],[0.5,0,0],[0.75,0,0],[1,0,0],[0,1,0],[0.25,1,0],[0.5,1,0],[0.75,1,0],[1,1,0],[0,0.25,0],[0,0.5,0],[0,0.75,0],[1,0.25,0],[1,0.5,0],[1,0.75,0]];outlineConnect=0;fontColor=#4FC1FF;gradientColor=#F54749;gradientDirection=north;fillColor=#C7131F;strokeColor=#ffffff;dashed=0;verticalLabelPosition=bottom;verticalAlign=top;align=center;html=1;fontSize=12;fontStyle=0;aspect=fixed;shape=mxgraph.aws4.resourceIcon;resIcon=mxgraph.aws4.identity_and_access_management;labelBackgroundColor=#1E1E1E;" parent="1" vertex="1">
                    <mxGeometry x="250" y="200" width="78" height="78" as="geometry"/>
                </mxCell>
                <mxCell id="46" style="edgeStyle=none;html=1;exitX=0;exitY=0.5;exitDx=0;exitDy=0;exitPerimeter=0;entryX=0.5;entryY=0;entryDx=0;entryDy=0;entryPerimeter=0;labelBackgroundColor=#1A1A1A;fontSize=12;fontColor=#E6E6E6;labelBorderColor=#1A1A1A;spacing=4;shadow=1;strokeWidth=2;" edge="1" parent="1" source="17" target="42">
                    <mxGeometry relative="1" as="geometry">
                        <Array as="points">
                            <mxPoint x="850" y="240"/>
                            <mxPoint x="808" y="280"/>
                            <mxPoint x="808" y="320"/>
                        </Array>
                    </mxGeometry>
                </mxCell>
                <mxCell id="17" value="&lt;div style=&quot;line-height: 19px ; font-family: &amp;#34;droid sans mono&amp;#34; , &amp;#34;monospace&amp;#34; , monospace&quot;&gt;&lt;span style=&quot;color: rgb(79 , 193 , 255) ; background-color: rgb(30 , 30 , 30)&quot;&gt;aws_iam_role&lt;br&gt;&lt;/span&gt;&lt;i style=&quot;color: rgb(79 , 193 , 255)&quot;&gt;&amp;lt;prefix&amp;gt;&lt;/i&gt;&lt;span style=&quot;color: rgb(79 , 193 , 255)&quot;&gt;_reply_to_mentions_execution_role&lt;/span&gt;&lt;span style=&quot;color: rgb(79 , 193 , 255) ; background-color: rgb(30 , 30 , 30)&quot;&gt;&lt;br&gt;&lt;/span&gt;&lt;div style=&quot;font-family: &amp;#34;droid sans mono&amp;#34; , &amp;#34;monospace&amp;#34; , monospace ; line-height: 19px&quot;&gt;&lt;span style=&quot;color: rgb(156 , 220 , 254)&quot;&gt;&lt;br&gt;&lt;/span&gt;&lt;div style=&quot;line-height: 19px&quot;&gt;&lt;span style=&quot;font-family: &amp;#34;helvetica&amp;#34;&quot;&gt;&lt;font color=&quot;#ce9178&quot;&gt;arn:aws:iam::aws:policy/service-role/AWSLambdaBasicExecutionRole&lt;/font&gt;&lt;/span&gt;&lt;span style=&quot;color: rgb(156 , 220 , 254)&quot;&gt;&lt;br&gt;&lt;/span&gt;&lt;/div&gt;&lt;/div&gt;&lt;/div&gt;" style="sketch=0;points=[[0,0,0],[0.25,0,0],[0.5,0,0],[0.75,0,0],[1,0,0],[0,1,0],[0.25,1,0],[0.5,1,0],[0.75,1,0],[1,1,0],[0,0.25,0],[0,0.5,0],[0,0.75,0],[1,0.25,0],[1,0.5,0],[1,0.75,0]];outlineConnect=0;fontColor=#4FC1FF;gradientColor=#F54749;gradientDirection=north;fillColor=#C7131F;strokeColor=#ffffff;dashed=0;verticalLabelPosition=bottom;verticalAlign=top;align=left;html=1;fontSize=12;fontStyle=0;aspect=fixed;shape=mxgraph.aws4.resourceIcon;resIcon=mxgraph.aws4.identity_and_access_management;labelBackgroundColor=#1E1E1E;" vertex="1" parent="1">
                    <mxGeometry x="930.5" y="200" width="78" height="78" as="geometry"/>
                </mxCell>
                <mxCell id="29" value="&lt;div style=&quot;font-family: &amp;#34;droid sans mono&amp;#34; , &amp;#34;monospace&amp;#34; , monospace ; line-height: 19px&quot;&gt;&lt;div style=&quot;color: rgb(212 , 212 , 212) ; font-family: &amp;#34;droid sans mono&amp;#34; , &amp;#34;monospace&amp;#34; , monospace ; line-height: 19px&quot;&gt;&lt;span style=&quot;color: #4fc1ff&quot;&gt;aws_iam_policy_document&lt;/span&gt;&lt;/div&gt;&lt;span style=&quot;color: rgb(79 , 193 , 255) ; background-color: rgb(30 , 30 , 30)&quot;&gt;&lt;br&gt;&lt;/span&gt;&lt;div style=&quot;font-family: &amp;#34;droid sans mono&amp;#34; , &amp;#34;monospace&amp;#34; , monospace ; line-height: 19px&quot;&gt;&lt;div style=&quot;font-family: &amp;#34;droid sans mono&amp;#34; , &amp;#34;monospace&amp;#34; , monospace ; line-height: 19px&quot;&gt;&lt;span style=&quot;color: rgb(156 , 220 , 254)&quot;&gt;actions&lt;/span&gt;&lt;span style=&quot;color: rgb(156 , 220 , 254)&quot;&gt;    &lt;/span&gt;&lt;font color=&quot;#d4d4d4&quot; style=&quot;font-size: 12px&quot;&gt;=&lt;/font&gt;&lt;span style=&quot;color: rgb(156 , 220 , 254)&quot;&gt; &lt;/span&gt;&lt;font color=&quot;#d4d4d4&quot; style=&quot;font-size: 12px&quot;&gt;[&lt;/font&gt;&lt;span style=&quot;color: rgb(206 , 145 , 120)&quot;&gt;&quot;sts:AssumeRole&quot;&lt;/span&gt;&lt;font color=&quot;#d4d4d4&quot; style=&quot;font-size: 12px&quot;&gt;]&lt;/font&gt;&lt;br&gt;&lt;div style=&quot;line-height: 19px&quot;&gt;&lt;span style=&quot;color: rgb(156 , 220 , 254)&quot;&gt;effect&lt;/span&gt;&lt;span style=&quot;color: rgb(156 , 220 , 254)&quot;&gt;     &lt;/span&gt;&lt;font color=&quot;#d4d4d4&quot; style=&quot;font-size: 12px&quot;&gt;=&lt;/font&gt;&lt;span style=&quot;color: rgb(156 , 220 , 254)&quot;&gt; &lt;/span&gt;&lt;span style=&quot;color: rgb(206 , 145 , 120)&quot;&gt;&quot;Allow&quot;&lt;br&gt;&lt;/span&gt;&lt;span style=&quot;color: rgb(156 , 220 , 254)&quot;&gt;principals = {&lt;br&gt;&amp;nbsp; type =&amp;nbsp;&lt;/span&gt;&lt;span style=&quot;color: rgb(206 , 145 , 120)&quot;&gt;&quot;Service&quot;&lt;/span&gt;&lt;span style=&quot;color: rgb(156 , 220 , 254)&quot;&gt;&lt;br&gt;&lt;/span&gt;&lt;div style=&quot;line-height: 19px&quot;&gt;&lt;span style=&quot;color: rgb(156 , 220 , 254)&quot;&gt;&amp;nbsp; identifiers =&amp;nbsp;&lt;/span&gt;&lt;span style=&quot;color: rgb(212 , 212 , 212)&quot;&gt;[&lt;/span&gt;&lt;span style=&quot;color: rgb(206 , 145 , 120)&quot;&gt;&quot;lambda.amazonaws.com&quot;&lt;/span&gt;&lt;span style=&quot;color: rgb(212 , 212 , 212)&quot;&gt;]&lt;br&gt;&lt;/span&gt;&lt;span style=&quot;color: rgb(156 , 220 , 254)&quot;&gt;}&lt;/span&gt;&lt;/div&gt;&lt;/div&gt;&lt;/div&gt;&lt;/div&gt;&lt;/div&gt;" style="sketch=0;points=[[0,0,0],[0.25,0,0],[0.5,0,0],[0.75,0,0],[1,0,0],[0,1,0],[0.25,1,0],[0.5,1,0],[0.75,1,0],[1,1,0],[0,0.25,0],[0,0.5,0],[0,0.75,0],[1,0.25,0],[1,0.5,0],[1,0.75,0]];outlineConnect=0;fontColor=#4FC1FF;gradientColor=#F54749;gradientDirection=north;fillColor=#C7131F;strokeColor=#ffffff;dashed=0;verticalLabelPosition=bottom;verticalAlign=top;align=left;html=1;fontSize=12;fontStyle=0;aspect=fixed;shape=mxgraph.aws4.resourceIcon;resIcon=mxgraph.aws4.identity_and_access_management;labelBackgroundColor=#1E1E1E;" vertex="1" parent="1">
                    <mxGeometry x="1008.5" y="400" width="78" height="78" as="geometry"/>
                </mxCell>
                <mxCell id="30" style="edgeStyle=none;html=1;entryX=0;entryY=0.5;entryDx=0;entryDy=0;entryPerimeter=0;labelBackgroundColor=#1A1A1A;fontColor=#E6E6E6;exitX=0;exitY=0.75;exitDx=0;exitDy=0;exitPerimeter=0;labelBorderColor=#1A1A1A;spacing=4;shadow=1;strokeWidth=2;" edge="1" parent="1" source="17" target="29">
                    <mxGeometry relative="1" as="geometry">
                        <Array as="points">
                            <mxPoint x="890" y="280"/>
                            <mxPoint x="890" y="400"/>
                            <mxPoint x="931" y="439"/>
                        </Array>
                    </mxGeometry>
                </mxCell>
                <mxCell id="36" style="edgeStyle=none;html=1;entryX=1;entryY=0.5;entryDx=0;entryDy=0;entryPerimeter=0;labelBackgroundColor=#1A1A1A;fontSize=12;fontColor=#E6E6E6;labelBorderColor=#1A1A1A;spacing=4;shadow=1;strokeWidth=2;" edge="1" parent="1" source="32" target="3">
                    <mxGeometry relative="1" as="geometry">
                        <Array as="points">
                            <mxPoint x="250" y="439"/>
                            <mxPoint x="210" y="439"/>
                        </Array>
                    </mxGeometry>
                </mxCell>
                <mxCell id="37" style="edgeStyle=none;html=1;labelBackgroundColor=#1A1A1A;fontSize=12;fontColor=#E6E6E6;entryX=0;entryY=0.75;entryDx=0;entryDy=0;entryPerimeter=0;exitX=1;exitY=0.5;exitDx=0;exitDy=0;exitPerimeter=0;labelBorderColor=#1A1A1A;spacing=4;shadow=1;strokeWidth=2;" edge="1" parent="1" source="32" target="2">
                    <mxGeometry relative="1" as="geometry">
                        <mxPoint x="600" y="380" as="targetPoint"/>
                        <Array as="points">
                            <mxPoint x="490" y="439"/>
                            <mxPoint x="490" y="400"/>
                            <mxPoint x="490" y="279"/>
                        </Array>
                    </mxGeometry>
                </mxCell>
                <mxCell id="32" value="&lt;div style=&quot;font-family: &amp;#34;droid sans mono&amp;#34; , &amp;#34;monospace&amp;#34; , monospace ; line-height: 19px&quot;&gt;&lt;span&gt;aws_cloudwatch_event_target&lt;br&gt;&lt;/span&gt;&lt;span&gt;&lt;br&gt;target_id:&amp;nbsp;&lt;/span&gt;&lt;span style=&quot;color: rgb(206 , 145 , 120) ; font-size: 13px&quot;&gt;InvokeLambda&lt;/span&gt;&lt;/div&gt;" style="sketch=0;points=[[0,0,0],[0.25,0,0],[0.5,0,0],[0.75,0,0],[1,0,0],[0,1,0],[0.25,1,0],[0.5,1,0],[0.75,1,0],[1,1,0],[0,0.25,0],[0,0.5,0],[0,0.75,0],[1,0.25,0],[1,0.5,0],[1,0.75,0]];points=[[0,0,0],[0.25,0,0],[0.5,0,0],[0.75,0,0],[1,0,0],[0,1,0],[0.25,1,0],[0.5,1,0],[0.75,1,0],[1,1,0],[0,0.25,0],[0,0.5,0],[0,0.75,0],[1,0.25,0],[1,0.5,0],[1,0.75,0]];outlineConnect=0;fontColor=#4FC1FF;gradientColor=#F34482;gradientDirection=north;fillColor=#BC1356;strokeColor=#ffffff;dashed=0;verticalLabelPosition=bottom;verticalAlign=top;align=center;html=1;fontSize=12;fontStyle=0;aspect=fixed;shape=mxgraph.aws4.resourceIcon;resIcon=mxgraph.aws4.cloudwatch_2;labelBackgroundColor=#1E1E1E;" vertex="1" parent="1">
                    <mxGeometry x="370" y="400" width="78" height="78" as="geometry"/>
                </mxCell>
                <mxCell id="44" style="edgeStyle=none;html=1;exitX=0;exitY=0.5;exitDx=0;exitDy=0;exitPerimeter=0;labelBackgroundColor=#1A1A1A;fontSize=12;fontColor=#E6E6E6;entryX=0.5;entryY=0;entryDx=0;entryDy=0;entryPerimeter=0;labelBorderColor=#1A1A1A;spacing=4;shadow=1;strokeWidth=2;" edge="1" parent="1" source="42" target="45">
                    <mxGeometry relative="1" as="geometry">
                        <mxPoint x="580" y="670" as="targetPoint"/>
                        <Array as="points">
                            <mxPoint x="730" y="439"/>
                            <mxPoint x="689" y="480"/>
                        </Array>
                    </mxGeometry>
                </mxCell>
                <mxCell id="42" value="&lt;div style=&quot;font-family: &amp;#34;droid sans mono&amp;#34; , &amp;#34;monospace&amp;#34; , monospace ; line-height: 19px&quot;&gt;&lt;div style=&quot;color: rgb(212 , 212 , 212) ; font-family: &amp;#34;droid sans mono&amp;#34; , &amp;#34;monospace&amp;#34; , monospace ; line-height: 19px&quot;&gt;&lt;span style=&quot;color: #4fc1ff&quot;&gt;aws_iam_policy_document&lt;br&gt;&lt;i&gt;&amp;lt;prefix&amp;gt;&lt;/i&gt;_config_policy&lt;/span&gt;&lt;/div&gt;&lt;div style=&quot;font-family: &amp;#34;droid sans mono&amp;#34; , &amp;#34;monospace&amp;#34; , monospace ; line-height: 19px&quot;&gt;&lt;div style=&quot;font-family: &amp;#34;droid sans mono&amp;#34; , &amp;#34;monospace&amp;#34; , monospace ; line-height: 19px&quot;&gt;&lt;div style=&quot;color: rgb(212 , 212 , 212) ; font-family: &amp;#34;droid sans mono&amp;#34; , &amp;#34;monospace&amp;#34; , monospace ; line-height: 19px&quot;&gt;&lt;div&gt;&lt;span style=&quot;color: rgb(156 , 220 , 254)&quot;&gt;&lt;br&gt;Action&lt;/span&gt;   = &lt;span style=&quot;color: rgb(206 , 145 , 120)&quot;&gt;&quot;ssm:GetParameter&quot;&lt;/span&gt;&lt;br&gt;&lt;/div&gt;&lt;div&gt;      &lt;span style=&quot;color: #9cdcfe&quot;&gt;Effect&lt;/span&gt;   = &lt;span style=&quot;color: #ce9178&quot;&gt;&quot;Allow&quot;&lt;/span&gt;&lt;/div&gt;&lt;/div&gt;&lt;/div&gt;&lt;/div&gt;&lt;/div&gt;" style="sketch=0;points=[[0,0,0],[0.25,0,0],[0.5,0,0],[0.75,0,0],[1,0,0],[0,1,0],[0.25,1,0],[0.5,1,0],[0.75,1,0],[1,1,0],[0,0.25,0],[0,0.5,0],[0,0.75,0],[1,0.25,0],[1,0.5,0],[1,0.75,0]];outlineConnect=0;fontColor=#4FC1FF;gradientColor=#F54749;gradientDirection=north;fillColor=#C7131F;strokeColor=#ffffff;dashed=0;verticalLabelPosition=bottom;verticalAlign=top;align=left;html=1;fontSize=12;fontStyle=0;aspect=fixed;shape=mxgraph.aws4.resourceIcon;resIcon=mxgraph.aws4.identity_and_access_management;labelBackgroundColor=#1E1E1E;" vertex="1" parent="1">
                    <mxGeometry x="768.5" y="400" width="78" height="78" as="geometry"/>
                </mxCell>
                <mxCell id="45" value="&lt;div style=&quot;color: rgb(212 , 212 , 212) ; font-family: &amp;#34;droid sans mono&amp;#34; , &amp;#34;monospace&amp;#34; , monospace ; line-height: 19px&quot;&gt;&lt;span style=&quot;color: rgb(79 , 193 , 255)&quot;&gt;aws_ssm_parameter&lt;/span&gt;&lt;/div&gt;&lt;font&gt;&lt;br&gt;&lt;span style=&quot;font-family: &amp;#34;droid sans mono&amp;#34; , &amp;#34;monospace&amp;#34; , monospace ; color: rgb(156 , 220 , 254)&quot;&gt;name&lt;/span&gt;&lt;span style=&quot;font-family: &amp;#34;droid sans mono&amp;#34; , &amp;#34;monospace&amp;#34; , monospace ; color: rgb(156 , 220 , 254)&quot;&gt;&amp;nbsp;&lt;/span&gt;&lt;span style=&quot;color: rgb(212 , 212 , 212) ; font-family: &amp;#34;droid sans mono&amp;#34; , &amp;#34;monospace&amp;#34; , monospace&quot;&gt;=&lt;/span&gt;&lt;span style=&quot;font-family: &amp;#34;droid sans mono&amp;#34; , &amp;#34;monospace&amp;#34; , monospace ; color: rgb(156 , 220 , 254)&quot;&gt;&amp;nbsp;&lt;/span&gt;&lt;span style=&quot;font-family: &amp;#34;droid sans mono&amp;#34; , &amp;#34;monospace&amp;#34; , monospace ; color: rgb(206 , 145 , 120)&quot;&gt;&quot;/&lt;/span&gt;&lt;span style=&quot;font-family: &amp;#34;droid sans mono&amp;#34; , &amp;#34;monospace&amp;#34; , monospace ; color: rgb(86 , 156 , 214)&quot;&gt;${&lt;/span&gt;&lt;span style=&quot;font-family: &amp;#34;droid sans mono&amp;#34; , &amp;#34;monospace&amp;#34; , monospace ; color: rgb(156 , 220 , 254)&quot;&gt;product&lt;/span&gt;&lt;span style=&quot;font-family: &amp;#34;droid sans mono&amp;#34; , &amp;#34;monospace&amp;#34; , monospace ; color: rgb(86 , 156 , 214)&quot;&gt;}&lt;/span&gt;&lt;span style=&quot;font-family: &amp;#34;droid sans mono&amp;#34; , &amp;#34;monospace&amp;#34; , monospace ; color: rgb(206 , 145 , 120)&quot;&gt;/&lt;/span&gt;&lt;span style=&quot;font-family: &amp;#34;droid sans mono&amp;#34; , &amp;#34;monospace&amp;#34; , monospace ; color: rgb(86 , 156 , 214)&quot;&gt;${&lt;/span&gt;&lt;span style=&quot;font-family: &amp;#34;droid sans mono&amp;#34; , &amp;#34;monospace&amp;#34; , monospace ; color: rgb(156 , 220 , 254)&quot;&gt;env&lt;/span&gt;&lt;span style=&quot;font-family: &amp;#34;droid sans mono&amp;#34; , &amp;#34;monospace&amp;#34; , monospace ; color: rgb(86 , 156 , 214)&quot;&gt;}&lt;/span&gt;&lt;span style=&quot;font-family: &amp;#34;droid sans mono&amp;#34; , &amp;#34;monospace&amp;#34; , monospace ; color: rgb(206 , 145 , 120)&quot;&gt;/config&quot;&lt;/span&gt;&lt;br&gt;&lt;div style=&quot;color: rgb(212 , 212 , 212) ; font-family: &amp;#34;droid sans mono&amp;#34; , &amp;#34;monospace&amp;#34; , monospace ; line-height: 19px&quot;&gt;&lt;div&gt;&lt;span style=&quot;color: rgb(156 , 220 , 254)&quot;&gt;type&lt;/span&gt;&lt;span style=&quot;color: rgb(156 , 220 , 254)&quot;&gt;&amp;nbsp;&lt;/span&gt;=&lt;span style=&quot;color: rgb(156 , 220 , 254)&quot;&gt;&amp;nbsp;&lt;/span&gt;&lt;span style=&quot;color: rgb(206 , 145 , 120)&quot;&gt;&quot;SecureString&quot;&lt;/span&gt;&lt;/div&gt;&lt;div&gt;&lt;span style=&quot;color: rgb(156 , 220 , 254)&quot;&gt;value&lt;/span&gt;&lt;span style=&quot;color: rgb(156 , 220 , 254)&quot;&gt;&amp;nbsp;&lt;/span&gt;=&lt;span style=&quot;color: rgb(156 , 220 , 254)&quot;&gt;&amp;nbsp;&lt;/span&gt;&lt;span style=&quot;color: rgb(220 , 220 , 170)&quot;&gt;jsonencode&lt;/span&gt;({&lt;br&gt;&lt;/div&gt;&lt;div&gt;&lt;span style=&quot;color: rgb(156 , 220 , 254)&quot;&gt;&amp;nbsp; MASTODON_API_URL&lt;/span&gt;&amp;nbsp;=&amp;nbsp;&lt;span style=&quot;color: rgb(206 , 145 , 120)&quot;&gt;&quot;...&quot;&lt;/span&gt;&lt;/div&gt;&lt;div&gt;&lt;span style=&quot;color: rgb(156 , 220 , 254)&quot;&gt;&amp;nbsp; MASTODON_ACCESS_TOKEN&lt;/span&gt;&amp;nbsp;=&amp;nbsp;&lt;span style=&quot;color: rgb(206 , 145 , 120)&quot;&gt;&quot;...&quot;&lt;/span&gt;&lt;/div&gt;&lt;div&gt;&lt;span style=&quot;color: rgb(156 , 220 , 254)&quot;&gt;&amp;nbsp; OPEN_AI_API_KEY&lt;/span&gt;&amp;nbsp;=&amp;nbsp;&lt;span style=&quot;color: rgb(206 , 145 , 120)&quot;&gt;&quot;...&quot;&lt;/span&gt;&lt;/div&gt;&lt;div&gt;})&lt;/div&gt;&lt;/div&gt;&lt;/font&gt;" style="sketch=0;points=[[0,0,0],[0.25,0,0],[0.5,0,0],[0.75,0,0],[1,0,0],[0,1,0],[0.25,1,0],[0.5,1,0],[0.75,1,0],[1,1,0],[0,0.25,0],[0,0.5,0],[0,0.75,0],[1,0.25,0],[1,0.5,0],[1,0.75,0]];points=[[0,0,0],[0.25,0,0],[0.5,0,0],[0.75,0,0],[1,0,0],[0,1,0],[0.25,1,0],[0.5,1,0],[0.75,1,0],[1,1,0],[0,0.25,0],[0,0.5,0],[0,0.75,0],[1,0.25,0],[1,0.5,0],[1,0.75,0]];outlineConnect=0;fontColor=#232F3E;gradientColor=#F34482;gradientDirection=north;fillColor=#BC1356;strokeColor=#ffffff;dashed=0;verticalLabelPosition=bottom;verticalAlign=top;align=left;html=1;fontSize=12;fontStyle=0;aspect=fixed;shape=mxgraph.aws4.resourceIcon;resIcon=mxgraph.aws4.systems_manager;labelBackgroundColor=#1E1E1E;" vertex="1" parent="1">
                    <mxGeometry x="650" y="560" width="78" height="78" as="geometry"/>
                </mxCell>
                <mxCell id="14" style="edgeStyle=none;html=1;entryX=0;entryY=0.5;entryDx=0;entryDy=0;entryPerimeter=0;exitX=0;exitY=0.5;exitDx=0;exitDy=0;exitPerimeter=0;fontColor=#E6E6E6;labelBorderColor=#1A1A1A;spacing=4;shadow=1;strokeWidth=2;" parent="1" source="16" target="3" edge="1">
                    <mxGeometry relative="1" as="geometry">
                        <Array as="points">
                            <mxPoint x="90" y="240"/>
                            <mxPoint x="50" y="280"/>
                            <mxPoint x="50" y="400"/>
                            <mxPoint x="90" y="439"/>
                        </Array>
                    </mxGeometry>
                </mxCell>
            </root>
        </mxGraphModel>
    </diagram>
</mxfile>